<?xml version="1.0" encoding="UTF-8"?>
<svg xmlns="http://www.w3.org/2000/svg" xmlns:xlink="http://www.w3.org/1999/xlink" width="90px" height="20px" viewBox="0 0 90 20" version="1.1">
<g id="surface1">
<path style=" stroke:none;fill-rule:nonzero;fill:rgb(100%,33.333334%,0%);fill-opacity:0.8;" d="M 0 4 L 0.9375 5.332031 C 1.875 6.6875 3.75 9.3125 5.625 9.667969 C 7.5 10 9.375 8 11.25 6 C 13.125 4 15 2 16.875 1.332031 C 18.75 0.6875 20.625 1.3125 22.5 3.332031 C 24.375 5.3125 26.25 8.6875 28.125 9.332031 C 30 10 31.875 8 33.75 7.332031 C 35.625 6.6875 37.5 7.3125 39.375 9.667969 C 41.25 12 43.125 16 45 17 C 46.875 18 48.75 16 50.625 13 C 52.5 10 54.375 6 56.25 5.332031 C 58.125 4.6875 60 7.3125 61.875 10 C 63.75 12.6875 65.625 15.3125 67.5 16 C 69.375 16.6875 71.25 15.3125 73.125 15 C 75 14.6875 76.875 15.3125 78.75 16 C 80.625 16.6875 82.5 17.3125 84.375 15 C 86.25 12.6875 88.125 7.3125 89.0625 4.667969 L 90 2 L 90 20 L 89.0625 20 C 88.125 20 86.25 20 84.375 20 C 82.5 20 80.625 20 78.75 20 C 76.875 20 75 20 73.125 20 C 71.25 20 69.375 20 67.5 20 C 65.625 20 63.75 20 61.875 20 C 60 20 58.125 20 56.25 20 C 54.375 20 52.5 20 50.625 20 C 48.75 20 46.875 20 45 20 C 43.125 20 41.25 20 39.375 20 C 37.5 20 35.625 20 33.75 20 C 31.875 20 30 20 28.125 20 C 26.25 20 24.375 20 22.5 20 C 20.625 20 18.75 20 16.875 20 C 15 20 13.125 20 11.25 20 C 9.375 20 7.5 20 5.625 20 C 3.75 20 1.875 20 0.9375 20 L 0 20 Z M 0 4 "/>
</g>
</svg>
